<svg version="1.2" xmlns="http://www.w3.org/2000/svg" viewBox="0 0 743 114" width="743" height="114"><defs><clipPath clipPathUnits="userSpaceOnUse" id="cp1"><path d="m-44-40h836v194h-836z"/></clipPath></defs><style>.a{opacity:1;fill:#1f3a8b}</style><g clip-path="url(#cp1)"><filter id="f0"><feFlood flood-color="#212121" flood-opacity="1" /><feBlend mode="normal" in2="SourceGraphic"/><feComposite in2="SourceAlpha" operator="in" /></filter><g filter="url(#f0)"><path fill-rule="evenodd" class="a" d="m195.5 32.2c2.2 0.2 5.2 1.2 6.7 2.1 1.7 1 4.6 5.1 7.2 9.9 2.4 4.6 7.6 14.5 11.5 22 3.9 7.6 7.1 14.2 7.1 14.8 0 0.6-2.2 0.9-10.3 0.5l-9.1-17.5c-5-9.6-9.7-18.5-10.4-19.8-0.8-1.4-2-2.1-3.4-2-1.7 0.2-3.8 3.5-10 15.3-4.3 8.2-8.9 17-10.1 19.5-2.2 4.4-2.3 4.5-7.5 4.7-3 0.2-5.2-0.1-5.2-0.7 0-0.6 3.3-7.4 7.4-15.3 4.1-7.8 9.1-17.6 11.3-21.7 2.5-4.9 5.1-8.3 7.3-9.8 2.6-1.8 4.5-2.3 7.5-2zm103 1.3l0.5 9.5h-22.9c-19 0-23.2 0.3-24.5 1.5-0.9 0.8-1.6 2.5-1.6 3.7 0 1.3 0.5 2.9 1.2 3.6 1 0.9 6.1 1.2 19.3 1.2 15.2 0 18.5 0.3 21.4 1.8 1.9 0.9 4.4 3 5.5 4.5 1.5 2 2.1 4.4 2.1 8.2 0 3.8-0.6 6.2-2.1 8.2-1.1 1.5-3.6 3.6-5.5 4.5-3 1.6-6.5 1.8-50.9 1.8l0.5-9.5 23-0.5c12.6-0.3 23.6-0.8 24.2-1.3 0.7-0.4 1.3-1.6 1.3-2.7 0-1.1-0.7-2.7-1.5-3.5-1.2-1.2-4.8-1.5-19-1.5-15.5 0-18-0.2-21.5-2-2.2-1.1-4.9-3.5-6-5.3-1.3-2-2-5-2-8 0-3.9 0.6-5.4 3.3-8.7 2-2.4 4.7-4.4 6.8-4.9 1.8-0.5 13.5-0.9 48.4-0.6zm42.4-0.5c21.3-0.1 27.9 0.2 28.9 1.2 0.7 0.7 1.1 2.9 0.7 8.3l-24 1-0.5 38.5h-9l-0.5-38.5-24.5-0.5-0.2-4.3c-0.1-2.4 0.2-4.7 0.7-5 0.5-0.4 13.2-0.7 28.4-0.7zm67.1 0.2c18.6 0.2 23 0.6 25.5 2 1.6 0.9 4.1 2.8 5.5 4.3 1.7 1.9 2.6 4.1 2.9 7.3 0.2 3-0.2 5.9-1.3 7.9-0.9 1.8-3 4.2-7.6 7.3l5 8.7c2.7 4.9 5 9.4 5 10 0 0.9-1.7 1.3-10 1.3l-4.5-8.5c-2.5-4.7-5.4-9-6.5-9.5-1.1-0.6-7.9-1-28-1l-0.5 18.5-9.5 0.5v-29h22.8c16.9 0 23.1-0.3 24-1.3 0.7-0.6 1.2-2.2 1.2-3.5 0-1.2-0.7-2.9-1.5-3.7-1.2-1.2-5.3-1.5-46.5-1.5l-0.2-4.3c-0.1-2.4 0.3-4.7 0.8-5.1 0.5-0.4 11-0.6 23.4-0.4zm80.5 0.9c13.4-0.1 16.7 0.2 20 1.8 2.4 1 5.2 3.5 7 6.1 2.9 4.2 3 4.7 3 16 0 10.5-0.2 12-2.3 15.1-1.3 1.9-4 4.5-5.9 5.9-3.5 2.4-4.4 2.5-20.7 2.8-16.4 0.3-17.3 0.2-21.6-2.1-2.5-1.3-5.9-4.3-7.5-6.6-2.9-4.1-3-4.7-3-14.9 0.1-7.9 0.5-11.5 1.7-13.7 0.9-1.7 2.7-4 4-5.2 1.2-1.2 3.9-2.9 5.8-3.7 2.6-1.1 7.4-1.5 19.5-1.5zm-20.3 14.5c-0.9 1.9-1.2 5.7-1 10.7 0.3 7.1 0.6 8.1 3 10.3 2.7 2.3 3.4 2.4 17.8 2.4 8.2 0 15.9-0.5 17-1 1.1-0.6 2.7-2.5 3.6-4.3 1.2-2.3 1.5-5.2 1.3-10.4-0.4-6.3-0.8-7.6-3.2-10-2.7-2.8-2.8-2.8-17.5-3-10.9-0.2-15.3 0.1-17.2 1.1-1.4 0.7-3.1 2.6-3.8 4.2zm90.8-14.6c19.9 0 23.5 0.2 26.6 1.7 1.9 1 4.4 3.3 5.5 5 1.1 1.9 1.9 5.1 1.9 7.5 0 2.5-0.8 5.6-2 7.5-1.1 1.9-3.9 4.2-6.3 5.3-3.7 1.7-6.4 2-39.7 2v19l-9.5-0.5v-28l23.3-0.5c19.2-0.4 23.4-0.8 24.2-2 0.5-0.8 1-2 1-2.5 0.1-0.6-0.7-2-1.7-3.3-1.8-2.1-2.3-2.2-46.8-2.7l-0.3-3c-0.2-1.7-0.1-3.6 0.2-4.3 0.4-0.9 6.1-1.2 23.6-1.2zm78.5 0.1c13.5 0 16.6 0.2 20 1.8 2.2 1 4.8 2.7 5.7 3.7 0.9 1 2.4 3.6 3.2 5.6q1.6 3.8 1.6 13c0 6.8-0.5 10.4-1.9 13.3-1 2.4-3.5 5.2-10.4 10h-18.2c-17.7 0-18.2-0.1-21.9-2.5-2.1-1.4-4.8-4.5-6.2-7.3-2-3.9-2.4-6.2-2.4-13.5 0-5.3 0.5-10 1.4-12.2 0.8-1.9 2.9-4.9 4.6-6.5 1.7-1.7 4.4-3.5 5.8-4.2 1.7-0.7 8.8-1.2 18.7-1.2zm-19.2 12.9c-1.4 1.8-1.8 4-1.8 11.2 0 8.5 0.1 9.1 2.7 11.4 2.7 2.3 3.3 2.4 18.8 2.4h16c4.7-5.7 5-6.9 5-14.3-0.1-6.2-0.5-8.7-1.8-10.3-0.9-1.2-2.9-2.7-4.5-3.3-1.5-0.6-8.3-1.1-15.5-1-7 0-13.7 0.4-14.9 0.8-1.2 0.5-3 1.8-4 3.1zm66.7-13h21.2c20.1 0 21.5 0.1 25.8 2.2 2.6 1.4 5.7 4.1 7.5 6.6 2.9 4.2 3 4.8 3 15.2 0 10.4-0.1 11-3 15.1-1.7 2.4-5 5.3-7.5 6.6-4.4 2.3-5.1 2.4-46.5 1.8v-28h8l0.5 19.5h16c13.6 0 16.4-0.3 18.6-1.8 1.5-0.9 3.3-2.9 4-4.5 0.8-1.5 1.4-5.4 1.4-8.7 0-3.3-0.7-7.3-1.5-9-0.8-1.7-2.5-3.7-3.8-4.5-1.8-1.2-6.1-1.5-43.7-1.5z"/><path fill-rule="evenodd" d="m59.6 1c1.5 0 4.1 0.1 5.6 0.2 1.6 0.2 4.2 0.6 5.8 0.9 1.6 0.3 4.3 1 5.8 1.5 1.6 0.4 3.6 1.1 4.5 1.5 0.9 0.4 3.2 1.5 5.1 2.4 1.9 1 4.3 2.3 5.4 3.1 1.1 0.7 3.1 2.2 4.5 3.3 1.4 1.1 3.7 3.1 5.1 4.5 1.3 1.3 3.4 3.7 4.6 5.1 1.2 1.5 2.8 3.8 3.7 5.1 0.8 1.4 2.1 3.6 2.9 5 0.7 1.4 1.9 4 2.6 5.9 0.8 1.9 1.7 4.8 2.1 6.5 0.5 1.7 1.1 4.6 1.3 6.4 0.4 2.5 0.5 4.4 0.3 9.3-0.1 5.1-0.2 6.6-0.8 9.5-0.5 1.9-1.2 4.8-1.8 6.5-0.5 1.7-1.6 4.4-2.3 6-0.7 1.6-2.1 4.3-3 5.9-1 1.7-2.6 4.1-3.7 5.6-1 1.3-3.2 3.9-4.9 5.7-1.6 1.8-4.2 4.1-5.5 5.2-1.4 1.2-3.6 2.8-4.8 3.6-1.3 0.8-3.2 1.9-4.3 2.4-1.6 0.8-2.2 1-3.1 0.9-0.6-0.1-1.5-0.5-2-0.8-0.6-0.3-1.2-1-1.6-1.9-0.4-1-0.5-1.6-0.4-2.4 0.2-0.7 0.4-1.5 0.6-1.9 0.3-0.4 0.8-0.9 1.2-1.2 0.5-0.3 2.1-1.3 3.8-2.3 1.6-0.9 4.3-2.8 5.9-4.2 1.6-1.3 3.9-3.4 4.9-4.6 1.1-1.2 2.5-2.8 3.1-3.6 0.6-0.8 1.8-2.6 2.6-3.9 0.9-1.4 2.1-3.7 2.8-5.3 0.7-1.5 1.5-3.7 1.9-5 0.4-1.2 1-3.1 1.2-4.1 0.3-1 0.7-3.4 0.9-5.3 0.2-2 0.4-4.8 0.4-6.4 0-1.5-0.2-4.5-0.4-6.5-0.3-2-0.7-4.7-1-5.9-0.3-1.2-1.1-3.6-1.6-5.2-0.7-1.7-1.9-4.4-2.8-6.1-0.8-1.7-2.3-4.2-3.2-5.5-1-1.3-2.7-3.4-3.8-4.7-1.1-1.2-3.2-3.2-4.6-4.4-1.4-1.2-3.5-2.8-4.8-3.6-1.2-0.8-3.8-2.2-5.6-3.1-2-1-4.9-2.1-6.9-2.7-2-0.6-5-1.3-6.8-1.6-2.6-0.5-4.4-0.6-8.5-0.6-4.1 0-5.9 0.1-8.5 0.6-1.8 0.3-4.8 1-6.8 1.6-2 0.6-4.9 1.7-6.9 2.7-1.8 0.9-4.4 2.3-5.6 3.1-1.3 0.8-3.4 2.4-4.7 3.5-1.3 1.1-3.4 3.1-4.6 4.4-1.2 1.3-3.1 3.7-4.1 5.2-1.1 1.6-2.5 4-3.2 5.4-0.7 1.4-1.8 3.7-2.3 5.2-0.6 1.5-1.4 3.8-1.7 5.2-0.4 1.4-0.9 4.3-1.1 6.4-0.3 2.1-0.5 5.1-0.5 6.6 0 1.6 0.2 4.4 0.4 6.4 0.2 1.9 0.6 4.3 0.9 5.3 0.2 1 0.8 2.9 1.2 4.1 0.4 1.3 1.2 3.5 1.9 5 0.7 1.6 1.9 3.8 2.7 5.1 0.8 1.3 2.1 3.3 3 4.3 0.8 1.1 2.5 3.1 3.7 4.3 1.2 1.3 3.4 3.3 4.8 4.4 1.5 1.2 3.4 2.6 4.3 3.1 0.8 0.6 2.2 1.3 2.9 1.7 0.8 0.4 1.9 1.2 2.4 1.8 0.6 0.6 1 1.4 1.1 2.2 0.1 0.9 0 1.5-0.5 2.6-0.6 1.1-1 1.5-2 2-0.7 0.4-1.5 0.7-1.9 0.7-0.4 0-1.6-0.4-2.7-1-1.1-0.5-3-1.6-4.3-2.4-1.2-0.8-3.4-2.4-4.8-3.6-1.3-1.1-3.9-3.4-5.5-5.2-1.7-1.8-3.9-4.4-4.9-5.7-1.1-1.5-2.7-3.9-3.7-5.6-0.9-1.6-2.3-4.3-3-5.9-0.7-1.6-1.8-4.3-2.3-6-0.6-1.7-1.3-4.6-1.8-6.5-0.6-2.9-0.7-4.4-0.8-9.5-0.2-4.9-0.1-6.8 0.3-9.3 0.2-1.8 0.8-4.7 1.3-6.4 0.4-1.7 1.3-4.6 2.1-6.5 0.7-1.9 1.9-4.5 2.6-5.9 0.8-1.4 2.1-3.6 2.9-5 0.9-1.3 2.5-3.6 3.7-5.1 1.2-1.5 3.4-3.9 4.8-5.3 1.5-1.4 3.8-3.5 5.3-4.6 1.5-1.2 3.7-2.7 4.8-3.5 1.2-0.7 4.1-2.3 6.4-3.4 2.3-1.1 5.7-2.5 7.5-3 1.8-0.5 4.6-1.3 6.2-1.6 1.6-0.3 4-0.7 5.3-0.8 1.4-0.2 3.7-0.3 5.3-0.3zm-0.2 18.1c0.6-0.1 2.4 0.1 4 0.2 1.6 0.2 4.2 0.7 5.8 1 1.5 0.4 4.1 1.3 5.6 1.9 1.6 0.6 3.4 1.4 4.1 1.8 0.7 0.4 2.4 1.5 3.8 2.5 1.5 1 3.9 3 5.7 4.8 1.7 1.7 3.9 4.1 4.8 5.4 0.9 1.2 2.4 3.6 3.3 5.3 0.8 1.7 1.9 4.4 2.4 5.8 0.5 1.5 1.1 3.9 1.4 5.4 0.3 1.8 0.5 4.1 0.5 6.9 0 2.9-0.2 5.2-0.5 7.1-0.3 1.5-0.9 3.9-1.3 5.2-0.5 1.3-1.4 3.7-2.1 5.2-0.8 1.6-1.9 3.6-2.4 4.5-0.6 0.9-1.1 1.6-1.3 1.5-0.1 0-0.8-1.6-1.5-3.4-0.7-1.9-1.5-4.2-2.6-6.8l0.6-1.6c0.3-0.8 0.8-2.5 1.1-3.6 0.3-1.2 0.7-3.5 0.8-5.1 0.2-2 0.2-4 0-5.9-0.1-1.7-0.6-4.3-1-5.8-0.4-1.6-1.2-3.9-1.8-5.2-0.7-1.4-1.8-3.3-2.4-4.4-0.8-1.1-2.5-3.2-3.9-4.6-1.4-1.4-3.5-3.1-4.7-3.8-1.2-0.8-3.2-1.8-4.4-2.3-1.2-0.6-3.5-1.4-5.1-1.8-2.6-0.8-3.1-0.8-8.3-0.8-5 0-5.7 0.1-8.2 0.8-1.5 0.4-3.8 1.1-5.1 1.7-1.3 0.6-3.3 1.6-4.5 2.4-1.2 0.7-3.3 2.4-4.7 3.8-1.4 1.4-3.1 3.5-3.8 4.6-0.7 1.1-1.8 2.8-2.3 3.9-0.5 1.1-1.2 2.8-1.6 3.8-0.3 1-0.8 3-1 4.4-0.3 1.5-0.5 4-0.5 6.1 0 1.9 0.1 4.5 0.3 5.6 0.2 1.2 0.8 3.4 1.2 4.8 0.6 1.7 0.8 3 0.7 3.4-0.1 0.4-0.8 2.4-1.6 4.5-0.8 2.1-1.6 4.2-1.7 4.6-0.2 0.5-0.4 0.8-0.5 0.8-0.1 0-0.6-0.7-1.2-1.6-0.5-0.9-1.6-2.9-2.3-4.3-0.7-1.5-1.6-3.8-2.1-5.3-0.5-1.3-1.1-3.8-1.4-5.3-0.3-1.8-0.5-4.3-0.5-6.9 0-2.9 0.1-5 0.5-7.1 0.3-1.6 1-4.2 1.5-5.8 0.6-1.5 1.7-4.1 2.6-5.8 0.8-1.6 2.2-3.9 3.1-5.1 0.8-1.1 2.9-3.5 4.7-5.2 1.8-1.8 4.2-3.8 5.7-4.8 1.4-1 3.1-2.1 3.8-2.5 0.7-0.4 2.5-1.2 4.1-1.8 1.5-0.6 4.1-1.5 5.7-1.9 1.6-0.4 3.9-0.8 5.2-1 1.3-0.1 2.8-0.2 3.3-0.2z"/><path  d="m59.9 42.3l27 51.2-26.9-7.9-27.1 7.9z"/></g></g></svg>