<svg version="1.2" xmlns="http://www.w3.org/2000/svg" viewBox="0 0 500 500" width="500" height="500"><style></style><path fill-rule="evenodd" d="m248.3 8c6.5-0.1 17.3 0.4 23.9 1 6.6 0.7 17.6 2.3 24.5 3.7 6.9 1.4 18 4.2 24.5 6.1 6.6 2 15.2 4.9 19.2 6.6 3.9 1.6 13.6 6.2 21.5 10.2 7.9 4 18.1 9.8 22.8 12.9 4.6 3.1 13.2 9.4 19.1 14.1 5.9 4.6 15.6 13.1 21.5 19 5.8 5.8 14.7 15.7 19.7 21.9 5 6.3 12 16 15.6 21.6 3.6 5.6 9 15 12.1 20.9 3.1 5.9 8.2 17.2 11.3 25.1 3.1 7.9 7.1 20.3 9 27.6 1.8 7.2 4.3 19.3 5.4 26.9 1.6 10.9 1.9 19 1.4 39.5-0.5 21.5-1.1 28.1-3.7 40.3-1.8 8.1-5.1 20.5-7.4 27.7-2.4 7-6.8 18.5-9.8 25.4-3 6.9-8.8 18.2-12.9 25.1-4.1 6.9-11.1 17.4-15.4 23.4-4.4 5.9-13.7 16.8-20.8 24.3-7.1 7.5-17.7 17.5-23.6 22.2-5.9 4.8-15.1 11.6-20.3 15.1-5.3 3.5-13.4 8.2-18 10.4-6.8 3.3-9.3 4-13.2 3.4-2.6-0.4-6.5-1.8-8.6-3.1-2.4-1.5-4.9-4.5-6.5-8-1.9-4.3-2.3-6.9-1.7-10.5 0.5-2.6 1.7-6.1 2.6-7.8 1-1.6 3.3-3.9 5-5.1 1.8-1.1 8.9-5.5 15.8-9.6 6.9-4.1 18.2-12.1 25.2-17.8 6.9-5.7 16.3-14.6 20.9-19.6 4.6-5.1 10.4-12 12.9-15.4 2.6-3.3 7.5-10.8 11.1-16.5 3.6-5.8 8.9-15.8 11.8-22.2 2.9-6.4 6.6-15.9 8.3-21.3 1.7-5.3 3.9-13.1 5-17.4 1.1-4.2 2.7-14.5 3.6-22.7 0.9-8.2 1.7-20.3 1.7-26.9 0-6.6-0.8-19-1.8-27.5-1-8.6-2.8-19.9-4.1-25.2-1.2-5.2-4.4-15.2-6.9-22.1-2.6-6.9-7.8-18.5-11.5-25.7-3.7-7.3-10-17.8-13.9-23.4-4-5.5-11.2-14.4-16-19.7-4.8-5.3-13.6-13.7-19.4-18.7-5.9-5-15-11.9-20.3-15.3-5.3-3.5-16-9.5-23.9-13.3-8.5-4.2-20.5-8.8-29.3-11.4-8.3-2.3-21.2-5.4-28.8-6.7-10.7-2-18.6-2.5-36-2.5-17.2 0-25.1 0.5-35.8 2.5-7.6 1.3-20.5 4.4-28.8 6.7-8.8 2.6-20.8 7.2-29.3 11.4-7.9 3.8-18.6 9.8-23.9 13.3-5.3 3.4-14.2 10.1-19.8 14.8-5.5 4.8-14.3 13.2-19.4 18.7-5.2 5.5-13.1 15.5-17.5 22-4.5 6.6-10.6 16.9-13.6 22.8-2.9 5.9-7.4 15.9-9.8 22.1-2.5 6.3-5.8 16.2-7.3 22.1-1.5 6-3.6 18.1-4.6 27-1.1 8.8-1.9 21.5-1.9 28.1 0 6.6 0.8 18.7 1.7 26.9 0.9 8.2 2.5 18.5 3.6 22.7 1.1 4.3 3.3 12.1 5 17.4 1.7 5.4 5.4 14.9 8.3 21.3 2.9 6.4 8 16.1 11.4 21.6 3.3 5.4 8.9 13.6 12.5 18.2 3.5 4.6 10.6 12.8 15.7 18.1 5.2 5.4 14.5 13.8 20.7 18.7 6.3 4.9 14.4 10.8 18 13.1 3.6 2.3 9.3 5.5 12.5 7.2 3.3 1.7 7.8 5 9.9 7.4 2.5 2.8 4.2 6.1 4.7 9.4 0.6 4 0.1 6.4-2.1 11.1-2.3 4.6-4.1 6.5-8.3 8.6-2.9 1.5-6.7 2.7-8.3 2.7-1.7 0-6.8-1.7-11.4-3.9-4.6-2.2-12.7-6.9-18-10.4-5.2-3.5-14.4-10.3-20.3-15.1-5.9-4.7-16.5-14.7-23.6-22.2-7.1-7.5-16.4-18.4-20.8-24.3-4.3-6-11.3-16.5-15.4-23.4-4.1-6.9-9.9-18.2-12.9-25.1-3-6.9-7.4-18.4-9.8-25.4-2.3-7.2-5.6-19.6-7.4-27.7-2.6-12.2-3.2-18.8-3.7-40.3-0.5-20.5-0.2-28.6 1.4-39.5 1.1-7.6 3.6-19.7 5.5-26.9 1.8-7.3 5.8-19.7 8.9-27.6 3.1-7.9 8.1-19.2 11.2-25.1 3.1-5.9 8.6-15.3 12.2-20.9 3.6-5.6 10.7-15.4 15.8-21.9 5.1-6.4 14.3-16.5 20.4-22.5 6-5.9 16.1-14.7 22.4-19.5 6.2-4.9 15.4-11.4 20.3-14.6 5-3.1 17.1-9.7 27-14.4 9.9-4.9 24-10.6 31.7-12.9 7.5-2.2 19.4-5.2 26.3-6.6 6.9-1.4 17.1-3 22.7-3.6 5.6-0.5 15.6-1 22.3-1.1zm-0.7 76.5c2.3-0.1 9.9 0.4 16.8 1.1 6.9 0.7 18 2.7 24.5 4.3 6.6 1.7 17.4 5.2 24 7.8 6.5 2.6 14.4 6.2 17.3 7.9 3 1.7 10.2 6.4 16.2 10.3 6.2 4.2 16.3 12.8 24 20.5 7.3 7.2 16.5 17.5 20.3 22.8 3.9 5.2 10.1 15.5 13.8 22.7 3.6 7.2 8.3 18.3 10.4 24.5 2.1 6.3 4.7 16.5 5.8 22.8 1.4 7.4 2.1 17.5 2.1 29.3 0 12.1-0.7 21.8-2.2 29.9-1.1 6.6-3.6 16.5-5.4 22.1-1.9 5.6-5.9 15.6-9 22.3-3.2 6.5-7.7 15-10.1 18.8-2.3 3.8-4.7 6.8-5.3 6.6-0.6-0.2-3.4-6.8-6.4-14.7-2.9-7.9-6.6-17.7-11-28.8l2.5-6.6c1.3-3.6 3.5-10.6 4.7-15.5 1.2-5 2.8-14.6 3.4-21.6 0.8-8.3 0.8-16.8 0.1-25.1-0.7-6.9-2.6-17.9-4.2-24.5-1.7-6.6-5.2-16.6-7.9-22.1-2.7-5.6-7.4-14-10.3-18.6-3-4.6-10.4-13.2-16.4-19.2-6-5.9-14.9-13.3-19.9-16.4-4.9-3.1-13.3-7.4-18.5-9.7-5.3-2.3-15-5.7-21.6-7.5-11.2-3.2-13.3-3.4-35.4-3.3-21.1 0-24.3 0.3-34.7 3.1-6.2 1.7-15.9 5-21.5 7.4-5.6 2.4-14.2 6.9-19.1 10-5 3.1-13.9 10.5-19.9 16.4-6 6-13.4 14.6-16.3 19.2-3 4.6-7.3 12.2-9.6 16.8-2.3 4.6-5.3 11.8-6.7 16.1-1.3 4.3-3.4 12.6-4.5 18.6-1.1 6.3-2 16.9-2 25.7 0 8.2 0.6 19 1.5 23.9 0.8 5 3.1 14.1 5.1 20.4 2.2 7.2 3.2 12.4 2.7 14.3-0.4 1.7-3.4 10.3-6.7 19.3-3.3 8.8-6.6 17.6-7.4 19.4-0.8 1.9-1.7 3.4-2 3.3-0.4 0-2.6-3.1-4.9-6.9-2.4-3.8-6.8-12-9.8-18.2-3-6.4-7-16.3-9-22.3-2-5.9-4.6-16.1-5.7-22.7-1.4-7.6-2.2-18.3-2.3-29.3 0-12.1 0.6-21.2 2.2-29.9 1.2-6.9 4.1-18 6.4-24.6 2.2-6.5 7.1-17.6 10.7-24.5 3.7-6.9 9.6-16.6 13.3-21.5 3.6-5 12.5-15 19.9-22.2 7.6-7.7 17.8-16.3 24-20.5 6-3.9 13.2-8.6 16.2-10.3 2.9-1.7 10.8-5.3 17.3-7.9 6.6-2.6 17.5-6.1 24.3-7.8 6.7-1.7 16.7-3.6 22.1-4.2 5.4-0.5 11.8-1.1 14.1-1.2z"/><path  d="m249.6 183l114.5 217.2-114-33.6-115.1 33.6z"/></svg>